<svg id="visual" viewBox="0 0 900 600" width="900" height="600" xmlns="http://www.w3.org/2000/svg" xmlns:xlink="http://www.w3.org/1999/xlink" version="1.1"><g stroke-width="1" stroke-linejoin="bevel"><path d="M440.1 263L490.9 258L471.9 181Z" fill="#081a28" stroke="#081a28"></path><path d="M471.9 181L397.1 179L440.1 263Z" fill="#15384f" stroke="#15384f"></path><path d="M438.1 348L528.9 299L490.9 258Z" fill="#0c2435" stroke="#0c2435"></path><path d="M490.9 258L577.7 173L471.9 181Z" fill="#0c2435" stroke="#0c2435"></path><path d="M577.7 173L486.9 105L471.9 181Z" fill="#246688" stroke="#246688"></path><path d="M471.9 181L486.9 105L397.1 179Z" fill="#00101c" stroke="#00101c"></path><path d="M394.1 339L438.1 348L440.1 263Z" fill="#246688" stroke="#246688"></path><path d="M440.1 263L438.1 348L490.9 258Z" fill="#081a28" stroke="#081a28"></path><path d="M596.7 189L577.7 173L490.9 258Z" fill="#081a28" stroke="#081a28"></path><path d="M357.3 337L394.1 339L440.1 263Z" fill="#205a7a" stroke="#205a7a"></path><path d="M528.9 299L596.7 189L490.9 258Z" fill="#00101c" stroke="#00101c"></path><path d="M438.1 348L499.9 359L528.9 299Z" fill="#0c2435" stroke="#0c2435"></path><path d="M528.9 299L596.7 329L596.7 189Z" fill="#19435d" stroke="#19435d"></path><path d="M499.9 359L562.7 335L528.9 299Z" fill="#00101c" stroke="#00101c"></path><path d="M311.3 192L357.3 337L440.1 263Z" fill="#1d4e6b" stroke="#1d4e6b"></path><path d="M394.1 339L417.1 424L438.1 348Z" fill="#297ea6" stroke="#297ea6"></path><path d="M438.1 348L476.9 434L499.9 359Z" fill="#15384f" stroke="#15384f"></path><path d="M296.3 175L311.3 192L397.1 179Z" fill="#0c2435" stroke="#0c2435"></path><path d="M397.1 179L311.3 192L440.1 263Z" fill="#112e42" stroke="#112e42"></path><path d="M486.9 105L411.1 65L397.1 179Z" fill="#246688" stroke="#246688"></path><path d="M589.7 415L596.7 329L562.7 335Z" fill="#0c2435" stroke="#0c2435"></path><path d="M562.7 335L596.7 329L528.9 299Z" fill="#081a28" stroke="#081a28"></path><path d="M639.5 170L577.7 98L577.7 173Z" fill="#277297" stroke="#277297"></path><path d="M577.7 173L577.7 98L486.9 105Z" fill="#081a28" stroke="#081a28"></path><path d="M486.9 105L456.9 0L411.1 65Z" fill="#0c2435" stroke="#0c2435"></path><path d="M279.5 333L358.3 362L357.3 337Z" fill="#297ea6" stroke="#297ea6"></path><path d="M357.3 337L358.3 362L394.1 339Z" fill="#246688" stroke="#246688"></path><path d="M346.3 56L296.3 175L397.1 179Z" fill="#112e42" stroke="#112e42"></path><path d="M311.3 192L279.5 333L357.3 337Z" fill="#246688" stroke="#246688"></path><path d="M666.5 220L639.5 170L596.7 189Z" fill="#246688" stroke="#246688"></path><path d="M596.7 189L639.5 170L577.7 173Z" fill="#0c2435" stroke="#0c2435"></path><path d="M411.1 65L346.3 56L397.1 179Z" fill="#00101c" stroke="#00101c"></path><path d="M596.7 329L666.5 220L596.7 189Z" fill="#081a28" stroke="#081a28"></path><path d="M358.3 362L417.1 424L394.1 339Z" fill="#277297" stroke="#277297"></path><path d="M499.9 359L589.7 415L562.7 335Z" fill="#1d4e6b" stroke="#1d4e6b"></path><path d="M417.1 424L476.9 434L438.1 348Z" fill="#00101c" stroke="#00101c"></path><path d="M237.5 217L279.5 333L311.3 192Z" fill="#0c2435" stroke="#0c2435"></path><path d="M358.3 362L344.3 457L417.1 424Z" fill="#205a7a" stroke="#205a7a"></path><path d="M721.4 103L634.5 93L639.5 170Z" fill="#00101c" stroke="#00101c"></path><path d="M639.5 170L634.5 93L577.7 98Z" fill="#246688" stroke="#246688"></path><path d="M582.7 0L456.9 0L486.9 105Z" fill="#205a7a" stroke="#205a7a"></path><path d="M411.1 65L422.1 0L346.3 56Z" fill="#112e42" stroke="#112e42"></path><path d="M582.7 0L486.9 105L577.7 98Z" fill="#00101c" stroke="#00101c"></path><path d="M248.5 117L237.5 217L296.3 175Z" fill="#1d4e6b" stroke="#1d4e6b"></path><path d="M296.3 175L237.5 217L311.3 192Z" fill="#19435d" stroke="#19435d"></path><path d="M456.9 0L422.1 0L411.1 65Z" fill="#297ea6" stroke="#297ea6"></path><path d="M476.9 434L589.7 415L499.9 359Z" fill="#277297" stroke="#277297"></path><path d="M596.7 329L691.5 315L666.5 220Z" fill="#277297" stroke="#277297"></path><path d="M346.3 56L248.5 117L296.3 175Z" fill="#246688" stroke="#246688"></path><path d="M298.3 0L248.5 117L346.3 56Z" fill="#112e42" stroke="#112e42"></path><path d="M589.7 415L637.5 396L596.7 329Z" fill="#112e42" stroke="#112e42"></path><path d="M637.5 396L691.5 315L596.7 329Z" fill="#297ea6" stroke="#297ea6"></path><path d="M666.5 220L710.4 178L639.5 170Z" fill="#19435d" stroke="#19435d"></path><path d="M151.6 314L278.5 393L279.5 333Z" fill="#112e42" stroke="#112e42"></path><path d="M279.5 333L278.5 393L358.3 362Z" fill="#081a28" stroke="#081a28"></path><path d="M765.4 234L710.4 178L666.5 220Z" fill="#277297" stroke="#277297"></path><path d="M621.5 0L577.7 98L634.5 93Z" fill="#15384f" stroke="#15384f"></path><path d="M621.5 0L582.7 0L577.7 98Z" fill="#15384f" stroke="#15384f"></path><path d="M278.5 393L344.3 457L358.3 362Z" fill="#081a28" stroke="#081a28"></path><path d="M444.1 501L505.9 487L476.9 434Z" fill="#19435d" stroke="#19435d"></path><path d="M476.9 434L505.9 487L589.7 415Z" fill="#112e42" stroke="#112e42"></path><path d="M444.1 501L476.9 434L417.1 424Z" fill="#1d4e6b" stroke="#1d4e6b"></path><path d="M589.7 415L635.5 486L637.5 396Z" fill="#19435d" stroke="#19435d"></path><path d="M703.4 0L621.5 0L634.5 93Z" fill="#112e42" stroke="#112e42"></path><path d="M344.3 457L444.1 501L417.1 424Z" fill="#112e42" stroke="#112e42"></path><path d="M422.1 0L298.3 0L346.3 56Z" fill="#00101c" stroke="#00101c"></path><path d="M845.2 134L721.4 103L710.4 178Z" fill="#1d4e6b" stroke="#1d4e6b"></path><path d="M710.4 178L721.4 103L639.5 170Z" fill="#00101c" stroke="#00101c"></path><path d="M637.5 396L726.4 357L691.5 315Z" fill="#15384f" stroke="#15384f"></path><path d="M691.5 315L757.4 274L666.5 220Z" fill="#19435d" stroke="#19435d"></path><path d="M715.4 486L726.4 357L637.5 396Z" fill="#246688" stroke="#246688"></path><path d="M726.4 357L757.4 274L691.5 315Z" fill="#15384f" stroke="#15384f"></path><path d="M757.4 274L765.4 234L666.5 220Z" fill="#277297" stroke="#277297"></path><path d="M298.3 0L216.5 45L248.5 117Z" fill="#19435d" stroke="#19435d"></path><path d="M248.5 117L165.6 120L237.5 217Z" fill="#112e42" stroke="#112e42"></path><path d="M278.5 393L271.5 464L344.3 457Z" fill="#1d4e6b" stroke="#1d4e6b"></path><path d="M344.3 457L331.3 520L444.1 501Z" fill="#277297" stroke="#277297"></path><path d="M196.6 459L271.5 464L278.5 393Z" fill="#277297" stroke="#277297"></path><path d="M216.5 45L201.6 62L248.5 117Z" fill="#15384f" stroke="#15384f"></path><path d="M237.5 217L151.6 314L279.5 333Z" fill="#15384f" stroke="#15384f"></path><path d="M601.7 507L589.7 415L505.9 487Z" fill="#19435d" stroke="#19435d"></path><path d="M601.7 507L635.5 486L589.7 415Z" fill="#112e42" stroke="#112e42"></path><path d="M201.6 62L165.6 120L248.5 117Z" fill="#15384f" stroke="#15384f"></path><path d="M535.7 600L601.7 507L505.9 487Z" fill="#246688" stroke="#246688"></path><path d="M686.5 600L657.5 481L635.5 486Z" fill="#15384f" stroke="#15384f"></path><path d="M635.5 486L657.5 481L637.5 396Z" fill="#297ea6" stroke="#297ea6"></path><path d="M128.6 225L151.6 314L237.5 217Z" fill="#112e42" stroke="#112e42"></path><path d="M216.5 45L181.6 0L201.6 62Z" fill="#205a7a" stroke="#205a7a"></path><path d="M81.8 0L70.8 104L165.6 120Z" fill="#1d4e6b" stroke="#1d4e6b"></path><path d="M298.3 0L229.5 0L216.5 45Z" fill="#0c2435" stroke="#0c2435"></path><path d="M271.5 464L331.3 520L344.3 457Z" fill="#297ea6" stroke="#297ea6"></path><path d="M444.1 501L482.9 600L505.9 487Z" fill="#246688" stroke="#246688"></path><path d="M806.2 0L703.4 0L721.4 103Z" fill="#00101c" stroke="#00101c"></path><path d="M721.4 103L703.4 0L634.5 93Z" fill="#205a7a" stroke="#205a7a"></path><path d="M165.6 120L128.6 225L237.5 217Z" fill="#246688" stroke="#246688"></path><path d="M70.8 104L112.8 204L165.6 120Z" fill="#00101c" stroke="#00101c"></path><path d="M165.6 120L112.8 204L128.6 225Z" fill="#112e42" stroke="#112e42"></path><path d="M128.6 225L79.8 330L151.6 314Z" fill="#246688" stroke="#246688"></path><path d="M135.6 392L196.6 459L278.5 393Z" fill="#246688" stroke="#246688"></path><path d="M271.5 464L208.5 551L331.3 520Z" fill="#205a7a" stroke="#205a7a"></path><path d="M135.6 392L278.5 393L151.6 314Z" fill="#0c2435" stroke="#0c2435"></path><path d="M757.4 274L817.2 220L765.4 234Z" fill="#081a28" stroke="#081a28"></path><path d="M765.4 234L817.2 220L710.4 178Z" fill="#19435d" stroke="#19435d"></path><path d="M852.2 285L817.2 220L757.4 274Z" fill="#277297" stroke="#277297"></path><path d="M790.2 369L757.4 274L726.4 357Z" fill="#19435d" stroke="#19435d"></path><path d="M798.2 431L790.2 369L726.4 357Z" fill="#0c2435" stroke="#0c2435"></path><path d="M229.5 0L181.6 0L216.5 45Z" fill="#19435d" stroke="#19435d"></path><path d="M657.5 481L715.4 486L637.5 396Z" fill="#00101c" stroke="#00101c"></path><path d="M686.5 600L715.4 486L657.5 481Z" fill="#081a28" stroke="#081a28"></path><path d="M79.8 330L135.6 392L151.6 314Z" fill="#112e42" stroke="#112e42"></path><path d="M435.1 600L444.1 501L331.3 520Z" fill="#112e42" stroke="#112e42"></path><path d="M435.1 600L482.9 600L444.1 501Z" fill="#081a28" stroke="#081a28"></path><path d="M711.4 600L739.4 488L715.4 486Z" fill="#19435d" stroke="#19435d"></path><path d="M347.3 600L435.1 600L331.3 520Z" fill="#1d4e6b" stroke="#1d4e6b"></path><path d="M686.5 600L635.5 486L601.7 507Z" fill="#1d4e6b" stroke="#1d4e6b"></path><path d="M715.4 486L739.4 488L726.4 357Z" fill="#297ea6" stroke="#297ea6"></path><path d="M482.9 600L535.7 600L505.9 487Z" fill="#0c2435" stroke="#0c2435"></path><path d="M217.5 600L347.3 600L331.3 520Z" fill="#081a28" stroke="#081a28"></path><path d="M817.2 220L845.2 134L710.4 178Z" fill="#246688" stroke="#246688"></path><path d="M900 191L845.2 134L817.2 220Z" fill="#205a7a" stroke="#205a7a"></path><path d="M739.4 488L798.2 431L726.4 357Z" fill="#205a7a" stroke="#205a7a"></path><path d="M790.2 369L852.2 285L757.4 274Z" fill="#19435d" stroke="#19435d"></path><path d="M900 310L852.2 285L790.2 369Z" fill="#205a7a" stroke="#205a7a"></path><path d="M0 246L79.8 330L128.6 225Z" fill="#277297" stroke="#277297"></path><path d="M0 321L75.8 339L79.8 330Z" fill="#1d4e6b" stroke="#1d4e6b"></path><path d="M79.8 330L75.8 339L135.6 392Z" fill="#081a28" stroke="#081a28"></path><path d="M124.6 538L208.5 551L196.6 459Z" fill="#297ea6" stroke="#297ea6"></path><path d="M81.8 0L165.6 120L201.6 62Z" fill="#1d4e6b" stroke="#1d4e6b"></path><path d="M112.8 204L0 246L128.6 225Z" fill="#1d4e6b" stroke="#1d4e6b"></path><path d="M847.2 50L806.2 0L721.4 103Z" fill="#277297" stroke="#277297"></path><path d="M88.8 412L196.6 459L135.6 392Z" fill="#19435d" stroke="#19435d"></path><path d="M196.6 459L208.5 551L271.5 464Z" fill="#19435d" stroke="#19435d"></path><path d="M75.8 339L88.8 412L135.6 392Z" fill="#19435d" stroke="#19435d"></path><path d="M900 79L847.2 50L845.2 134Z" fill="#081a28" stroke="#081a28"></path><path d="M845.2 134L847.2 50L721.4 103Z" fill="#297ea6" stroke="#297ea6"></path><path d="M70.8 104L46.8 142L112.8 204Z" fill="#112e42" stroke="#112e42"></path><path d="M739.4 488L801.2 495L798.2 431Z" fill="#15384f" stroke="#15384f"></path><path d="M900 408L900 310L790.2 369Z" fill="#297ea6" stroke="#297ea6"></path><path d="M806.2 600L801.2 495L739.4 488Z" fill="#081a28" stroke="#081a28"></path><path d="M535.7 600L686.5 600L601.7 507Z" fill="#19435d" stroke="#19435d"></path><path d="M900 310L900 191L852.2 285Z" fill="#1d4e6b" stroke="#1d4e6b"></path><path d="M852.2 285L900 191L817.2 220Z" fill="#112e42" stroke="#112e42"></path><path d="M181.6 0L81.8 0L201.6 62Z" fill="#1d4e6b" stroke="#1d4e6b"></path><path d="M0 38L0 159L46.8 142Z" fill="#081a28" stroke="#081a28"></path><path d="M900 408L790.2 369L798.2 431Z" fill="#00101c" stroke="#00101c"></path><path d="M177.6 600L217.5 600L208.5 551Z" fill="#15384f" stroke="#15384f"></path><path d="M208.5 551L217.5 600L331.3 520Z" fill="#246688" stroke="#246688"></path><path d="M900 191L900 119L845.2 134Z" fill="#081a28" stroke="#081a28"></path><path d="M686.5 600L711.4 600L715.4 486Z" fill="#297ea6" stroke="#297ea6"></path><path d="M88.8 412L124.6 538L196.6 459Z" fill="#205a7a" stroke="#205a7a"></path><path d="M900 119L900 79L845.2 134Z" fill="#00101c" stroke="#00101c"></path><path d="M847.2 50L900 0L806.2 0Z" fill="#1d4e6b" stroke="#1d4e6b"></path><path d="M75.8 339L0 380L88.8 412Z" fill="#112e42" stroke="#112e42"></path><path d="M0 491L91.8 563L124.6 538Z" fill="#205a7a" stroke="#205a7a"></path><path d="M46.8 142L0 246L112.8 204Z" fill="#277297" stroke="#277297"></path><path d="M0 159L0 246L46.8 142Z" fill="#081a28" stroke="#081a28"></path><path d="M0 38L46.8 142L70.8 104Z" fill="#15384f" stroke="#15384f"></path><path d="M124.6 538L177.6 600L208.5 551Z" fill="#00101c" stroke="#00101c"></path><path d="M0 246L0 321L79.8 330Z" fill="#297ea6" stroke="#297ea6"></path><path d="M900 475L798.2 431L801.2 495Z" fill="#277297" stroke="#277297"></path><path d="M900 475L900 408L798.2 431Z" fill="#0c2435" stroke="#0c2435"></path><path d="M0 321L0 380L75.8 339Z" fill="#00101c" stroke="#00101c"></path><path d="M900 79L900 0L847.2 50Z" fill="#112e42" stroke="#112e42"></path><path d="M81.8 0L0 38L70.8 104Z" fill="#246688" stroke="#246688"></path><path d="M0 491L124.6 538L88.8 412Z" fill="#297ea6" stroke="#297ea6"></path><path d="M124.6 538L93.8 600L177.6 600Z" fill="#00101c" stroke="#00101c"></path><path d="M900 563L900 475L801.2 495Z" fill="#15384f" stroke="#15384f"></path><path d="M711.4 600L806.2 600L739.4 488Z" fill="#277297" stroke="#277297"></path><path d="M81.8 0L0 0L0 38Z" fill="#112e42" stroke="#112e42"></path><path d="M0 380L0 463L88.8 412Z" fill="#0c2435" stroke="#0c2435"></path><path d="M0 600L93.8 600L91.8 563Z" fill="#081a28" stroke="#081a28"></path><path d="M91.8 563L93.8 600L124.6 538Z" fill="#00101c" stroke="#00101c"></path><path d="M0 463L0 491L88.8 412Z" fill="#246688" stroke="#246688"></path><path d="M806.2 600L900 563L801.2 495Z" fill="#081a28" stroke="#081a28"></path><path d="M806.2 600L900 600L900 563Z" fill="#15384f" stroke="#15384f"></path><path d="M0 491L0 600L91.8 563Z" fill="#1d4e6b" stroke="#1d4e6b"></path></g></svg>